#!OML:ASF E:\inclinewalkrobotboard\Project 1\Capture day 1\Session 1\subject1.ASF
:FULLY-SPECIFIED
:DEGREES
430
root 8.61706 25.2062 -12.682 -171.957 1.1587 178.556
lowerback -7.63394 0.659538 -6.40351
upperback 1.17577 1.44572 0.950308
thorax 5.34505 0.503493 4.77719
lowerneck 3.1973 -4.7779 -5.03165
upperneck 5.21641 -6.75126 -2.69535
head 1.14888 -3.6283 -0.0187586
rclavicle -1.25483e-014 -8.54774e-015
rhumerus -44.2031 -35.7417 -62.7864
rradius 19.1993
rwrist 26.6017
rhand -12.4908 -38.2715
rfingers 7.12502
rthumb 13.584 -67.8084
lclavicle -1.25483e-014 -8.54774e-015
lhumerus -28.903 16.9913 80.8986
lradius 13.6442
lwrist -38.3875
lhand -24.7798 -22.6582
lfingers 7.12502
lthumb 1.72422 7.31462
rfemur -7.98574 5.755 17.2779
rtibia 13.7986
rfoot -25.1718 -3.8556
rtoes -23.1748
lfemur -8.21276 -8.90936 -22.1665
ltibia 13.4681
lfoot -27.1812 -3.20184
ltoes -38.6551
431
root 8.61587 25.2094 -12.6628 -172.163 1.08524 178.34
lowerback -7.30611 0.595884 -6.73782
upperback 1.17747 1.37186 0.900469
thorax 5.16548 0.464686 4.89676
lowerneck 3.29131 -4.74736 -4.79051
upperneck 5.0528 -6.70624 -2.85388
head 1.06656 -3.59649 -0.0991218
rclavicle -7.0817e-016 -7.55382e-015
rhumerus -44.0564 -35.6248 -63.0394
rradius 19.1539
rwrist 26.4043
rhand -12.6112 -38.4291
rfingers 7.12502
rthumb 13.468 -67.9737
lclavicle -7.0817e-016 -7.55382e-015
lhumerus -28.7202 16.8479 81.1276
lradius 13.7879
lwrist -38.3666
lhand -24.6095 -22.2623
lfingers 7.12502
lthumb 1.88875 7.70905
rfemur -7.91126 5.94225 17.0356
rtibia 13.9256
rfoot -25.2424 -4.22386
rtoes -23.3093
lfemur -8.17741 -9.11749 -22.4097
ltibia 13.6408
lfoot -27.2336 -3.11994
ltoes -38.4669
432
root 8.61642 25.2059 -12.6427 -172.129 1.44116 178.206
lowerback -7.26944 0.717058 -6.99798
upperback 1.14261 1.55828 0.83189
thorax 5.0793 0.555167 4.99029
lowerneck 3.24191 -4.74443 -4.66083
upperneck 4.96613 -6.69075 -2.99525
head 1.03765 -3.58445 -0.162072
rclavicle 1.86361e-016 1.98785e-016
rhumerus -43.9108 -35.4011 -63.4249
rradius 19.2261
rwrist 26.0095
rhand -12.6508 -38.5755
rfingers 7.12502
rthumb 13.4298 -68.1225
lclavicle 1.86361e-016 1.98785e-016
lhumerus -28.2687 16.0744 81.629
lradius 13.8771
lwrist -37.6035
lhand -24.2109 -22.1304
lfingers 7.12502
lthumb 2.2737 7.83718
rfemur -8.2815 6.18492 16.8131
rtibia 14.2284
rfoot -25.2435 -4.17925
rtoes -23.3207
lfemur -8.33776 -9.04568 -22.536
ltibia 13.721
lfoot -27.2998 -2.86735
ltoes -38.5061
433
root 8.60177 25.2147 -12.6633 -172.492 0.207773 178.323
lowerback -7.17452 0.370649 -6.6663
upperback 1.29858 1.06023 0.867988
thorax 5.2619 0.30617 4.78619
lowerneck 3.13523 -4.7506 -4.7582
upperneck 4.95207 -6.69273 -2.99364
head 1.0546 -3.58659 -0.148968
rclavicle 1.78533e-014 1.55052e-014
rhumerus -43.7775 -35.1617 -63.7168
rradius 19.2583
rwrist 25.7513
rhand -12.7731 -38.2536
rfingers 7.12502
rthumb 13.3119 -67.8084
lclavicle 1.78533e-014 1.55052e-014
lhumerus -28.0649 15.3085 82.0813
lradius 14.0293
lwrist -36.9837
lhand -24.1122 -22.2385
lfingers 7.12502
lthumb 2.36904 7.72812
rfemur -7.14259 5.46795 17.0467
rtibia 13.4659
rfoot -25.3198 -4.55954
rtoes -23.053
lfemur -7.95468 -9.69294 -22.5077
ltibia 13.8238
lfoot -27.1198 -3.41428
ltoes -38.6049
434
root 8.61211 25.2038 -12.6371 -172.392 1.58422 178.326
lowerback -7.20543 0.800284 -6.95154
upperback 1.17136 1.6597 0.847777
thorax 5.05991 0.606215 4.99024
lowerneck 3.09825 -4.72987 -4.89388
upperneck 4.94336 -6.66702 -2.95776
head 1.06399 -3.57584 -0.117438
rclavicle -3.06874e-015 -2.08724e-015
rhumerus -43.6524 -34.9021 -63.9835
rradius 19.2757
rwrist 25.5193
rhand -13.1926 -37.6586
rfingers 7.12502
rthumb 12.9075 -67.2395
lclavicle -3.06874e-015 -2.08724e-015
lhumerus -28.2365 15.0757 82.2714
lradius 14.2944
lwrist -37.0948
lhand -24.2669 -22.0798
lfingers 7.12502
lthumb 2.21958 7.88841
rfemur -8.06256 6.58988 16.9709
rtibia 14.2609
rfoot -25.3742 -4.2864
rtoes -22.8663
lfemur -8.0739 -9.06763 -22.4179
ltibia 13.7528
lfoot -27.3887 -2.68411
ltoes -38.6393
435
root 8.60868 25.2041 -12.623 -172.487 1.63483 178.335
lowerback -7.05113 0.83465 -6.92726
upperback 1.08342 1.69043 0.822186
thorax 4.87658 0.632573 4.94628
lowerneck 3.08769 -4.746 -4.99612
upperneck 4.88296 -6.68934 -2.88287
head 1.05359 -3.58453 -0.077782
rclavicle -4.96962e-017 -6.95746e-016
rhumerus -43.5966 -34.3846 -64.4431
rradius 19.4899
rwrist 24.9959
rhand -13.5136 -37.41
rfingers 7.12502
rthumb 12.5981 -67.0101
lclavicle -4.96962e-017 -6.95746e-016
lhumerus -28.4436 14.6588 82.5044
lradius 14.6341
lwrist -36.5572
lhand -24.0591 -22.1312
lfingers 7.12502
lthumb 2.42032 7.83486
rfemur -8.14005 6.70317 16.9669
rtibia 14.4502
rfoot -25.4072 -4.30709
rtoes -22.5818
lfemur -8.10305 -9.13517 -22.4141
ltibia 13.8894
lfoot -27.5242 -2.54617
ltoes -38.7086
436
root 8.60823 25.2056 -12.6071 -172.47 1.65359 178.334
lowerback -6.96184 0.900748 -6.93283
upperback 0.947266 1.77174 0.768468
thorax 4.67293 0.685992 4.89563
lowerneck 3.22848 -4.74795 -5.08323
upperneck 4.8869 -6.70807 -2.84149
head 1.03628 -3.59559 -0.0476426
rclavicle 8.31168e-015 -1.98785e-016
rhumerus -43.6748 -33.8714 -64.9556
rradius 19.9139
rwrist 24.4901
rhand -13.5829 -37.3259
rfingers 7.12502
rthumb 12.5312 -66.9301
lclavicle 8.31168e-015 -1.98785e-016
lhumerus -28.6149 13.469 83.0212
lradius 15.1353
lwrist -35.043
lhand -23.7139 -22.2598
lfingers 7.12502
lthumb 2.75368 7.7022
rfemur -8.31624 6.77356 16.9411
rtibia 14.5913
rfoot -25.4105 -4.3235
rtoes -22.2885
lfemur -8.23199 -9.21248 -22.3779
ltibia 13.937
lfoot -27.5783 -2.38876
ltoes -38.6741
437
root 8.61011 25.2056 -12.5913 -172.398 1.6984 178.39
lowerback -6.97705 0.975396 -6.94751
upperback 0.865541 1.87139 0.774643
thorax 4.58144 0.741127 4.91922
lowerneck 3.36202 -4.81328 -5.15055
upperneck 4.7743 -6.80945 -2.85371
head 0.982132 -3.64342 -0.0351444
rclavicle -9.93923e-017 -1.00386e-014
rhumerus -43.483 -33.555 -65.4568
rradius 20.3444
rwrist 24.2428
rhand -13.4671 -37.5942
rfingers 7.12502
rthumb 12.6429 -67.1916
lclavicle -9.93923e-017 -1.00386e-014
lhumerus -28.6144 12.6554 83.5341
lradius 15.44
lwrist -34.4453
lhand -23.8764 -22.23
lfingers 7.12502
lthumb 2.5967 7.73393
rfemur -8.53463 6.97162 17.0065
rtibia 14.6996
rfoot -25.4295 -4.47592
rtoes -22.1009
lfemur -8.46113 -9.20566 -22.232
ltibia 14.0324
lfoot -27.5455 -2.33299
ltoes -38.5156
438
root 8.60592 25.2074 -12.5846 -172.483 1.69261 178.4
lowerback -7.06801 1.03342 -6.9352
upperback 0.963624 1.95692 0.778123
thorax 4.72486 0.774918 4.92958
lowerneck 3.48631 -4.88641 -5.1698
upperneck 4.58102 -6.91698 -2.8542
head 0.903385 -3.68901 -0.0253052
rclavicle -8.00108e-015 7.85199e-015
rhumerus -42.9087 -33.2078 -66.1482
rradius 20.7832
rwrist 23.8301
rhand -13.2978 -38.0973
rfingers 7.12502
rthumb 12.8061 -67.6845
lclavicle -8.00108e-015 7.85199e-015
lhumerus -28.3044 12.4931 83.9542
lradius 15.4762
lwrist -34.3818
lhand -24.072 -22.1499
lfingers 7.12502
lthumb 2.40785 7.81621
rfemur -8.47761 7.10166 17.0263
rtibia 14.7301
rfoot -25.4859 -4.60496
rtoes -21.5686
lfemur -8.44684 -9.2465 -22.232
ltibia 14.107
lfoot -27.5669 -2.33237
ltoes -38.4169
439
root 8.60112 25.2116 -12.5764 -172.593 1.48768 178.484
lowerback -7.09659 1.003 -6.82343
upperback 1.07213 1.90984 0.801315
thorax 4.86403 0.74525 4.88931
lowerneck 3.58616 -4.90476 -5.1314
upperneck 4.42872 -6.9467 -2.85098
head 0.838743 -3.69614 -0.0246745
rclavicle -1.70085e-014 1.2921e-015
rhumerus -42.4637 -32.9945 -66.6619
rradius 21.1095
rwrist 23.579
rhand -13.4369 -37.2119
rfingers 7.12502
rthumb 12.672 -66.8075
lclavicle -1.70085e-014 1.2921e-015
lhumerus -28.0969 11.947 84.4468
lradius 15.7467
lwrist -33.4189
lhand -23.8785 -21.7786
lfingers 7.12502
lthumb 2.59465 8.18532
rfemur -8.36093 7.1121 17.1539
rtibia 14.7688
rfoot -25.5816 -4.7745
rtoes -23.5867
lfemur -8.44385 -9.34469 -22.1432
ltibia 14.2323
lfoot -27.609 -2.4209
ltoes -38.4553
440
root 8.59973 25.2143 -12.5663 -172.646 1.36961 178.585
lowerback -7.06149 0.966515 -6.75573
upperback 1.10415 1.85073 0.843353
thorax 4.88619 0.715207 4.88877
lowerneck 3.72336 -4.89092 -5.11767
upperneck 4.26854 -6.93882 -2.854
head 0.765966 -3.68534 -0.0207929
rclavicle 1.03617e-014 1.39149e-015
rhumerus -41.9122 -32.3794 -67.4855
rradius 21.5274
rwrist 23.0992
rhand -13.577 -37.0145
rfingers 7.12502
rthumb 12.5369 -66.6184
lclavicle 1.03617e-014 1.39149e-015
lhumerus -28.2842 10.865 84.9573
lradius 16.3795
lwrist -32.1393
lhand -23.7989 -21.5851
lfingers 7.12502
lthumb 2.67162 8.37794
rfemur -8.37634 7.22028 17.3028
rtibia 14.8734
rfoot -25.658 -5.01555
rtoes -23.909
lfemur -8.50543 -9.39966 -21.9973
ltibia 14.3361
lfoot -27.6636 -2.41772
ltoes -38.5825
441
root 8.59828 25.2132 -12.5641 -172.593 1.35642 178.531
lowerback -7.23466 0.921925 -6.85224
upperback 1.11785 1.81387 0.841065
thorax 5.00153 0.689395 4.94313
lowerneck 3.96059 -4.86311 -5.01164
upperneck 3.99709 -6.91809 -2.96382
head 0.635443 -3.66376 -0.0586838
rclavicle -8.57259e-015 -7.05686e-015
rhumerus -41.2609 -31.6268 -68.3914
rradius 21.9523
rwrist 22.7895
rhand -13.4926 -37.2692
rfingers 7.12502
rthumb 12.6183 -66.8681
lclavicle -8.57259e-015 -7.05686e-015
lhumerus -28.4633 10.1345 85.3176
lradius 16.9664
lwrist -31.3007
lhand -23.7412 -21.651
lfingers 7.12502
lthumb 2.72731 8.31134
rfemur -8.45707 7.19242 17.2285
rtibia 14.9126
rfoot -25.672 -5.05325
rtoes -22.3783
lfemur -8.54558 -9.39898 -22.0801
ltibia 14.3033
lfoot -27.6632 -2.37493
ltoes -38.6475
442
root 8.59736 25.2077 -12.5625 -172.421 1.4719 178.513
lowerback -7.54519 0.88726 -6.91975
upperback 1.11168 1.79744 0.849259
thorax 5.17164 0.672656 4.99831
lowerneck 3.55126 -4.78708 -5.36289
upperneck 4.13196 -6.79706 -2.87064
head 0.758513 -3.61462 0.0105197
rclavicle -1.15544e-015 7.05686e-015
rhumerus -40.573 -30.6025 -69.5145
rradius 22.6304
rwrist 22.1628
rhand -13.3399 -38.0537
rfingers 7.12502
rthumb 12.7655 -67.6435
lclavicle -1.15544e-015 7.05686e-015
lhumerus -28.2935 10.447 85.3842
lradius 17.1191
lwrist -31.3593
lhand -23.5045 -21.5979
lfingers 7.12502
lthumb 2.95591 8.3614
rfemur -8.71742 7.08567 17.1594
rtibia 15.0186
rfoot -25.7019 -4.86741
rtoes -21.693
lfemur -8.672 -9.3269 -22.1225
ltibia 14.2276
lfoot -27.6138 -2.32056
ltoes -38.5683
443
root 8.58897 25.2095 -12.5617 -172.586 1.22004 178.663
lowerback -7.42546 0.824489 -6.69824
upperback 1.13762 1.68218 0.879357
thorax 5.15096 0.621483 4.88876
lowerneck 3.39045 -4.76748 -5.5043
upperneck 4.11154 -6.76141 -2.83629
head 0.784544 -3.59787 0.0391796
rclavicle 6.05051e-015 -1.27222e-014
rhumerus -40.4239 -30.1779 -69.9262
rradius 23.037
rwrist 22.4808
rhand -14.342 -36.4225
rfingers 7.12502
rthumb 11.7993 -66.0701
lclavicle 6.05051e-015 -1.27222e-014
lhumerus -28.2145 10.805 85.3422
lradius 17.1169
lwrist -31.8585
lhand -23.5461 -21.4002
lfingers 7.12502
lthumb 2.91568 8.55963
rfemur -8.45842 6.79402 17.3394
rtibia 14.991
rfoot -25.7661 -4.85684
rtoes -20.8112
lfemur -8.53116 -9.45253 -22.0238
ltibia 14.3005
lfoot -27.5603 -2.44962
ltoes -38.4794
444
root 8.58412 25.2093 -12.5536 -172.626 1.05098 178.829
lowerback -7.37361 0.817625 -6.52159
upperback 1.12053 1.651 0.897327
thorax 5.11106 0.612861 4.80239
lowerneck 3.27378 -4.79685 -5.53955
upperneck 4.054 -6.78912 -2.82383
head 0.788086 -3.60881 0.0462733
rclavicle -1.02374e-014 -2.98177e-015
rhumerus -40.2592 -29.6723 -70.4543
rradius 23.6996
rwrist 22.3892
rhand -14.8236 -35.9976
rfingers 7.12502
rthumb 11.3349 -65.6713
lclavicle -1.02374e-014 -2.98177e-015
lhumerus -28.2172 10.668 85.3729
lradius 17.1563
lwrist -32.0847
lhand -23.901 -21.3898
lfingers 7.12502
lthumb 2.57294 8.57448
rfemur -8.43102 6.62965 17.5326
rtibia 15.0366
rfoot -25.7936 -4.81551
rtoes -20.4312
lfemur -8.61559 -9.44098 -21.8539
ltibia 14.4786
lfoot -27.5633 -2.62293
ltoes -38.5131
